
<svg height="468pt" viewBox="-10 0 468 468.45098" width="468pt" xmlns="http://www.w3.org/2000/svg"><path d="m384.226562 234.210938c0 88.363281-71.636718 160-160 160-88.367187 0-160-71.636719-160-160 0-88.367188 71.632813-160 160-160 88.363282 0 160 71.632812 160 160zm0 0" fill="#4891d3"/><path d="m344.226562 186.210938c10.707032.011718 21.402344-.761719 32-2.320313-14.003906-42.367187-45.066406-76.960937-85.683593-95.429687-40.617188-18.472657-87.105469-19.140626-128.238281-1.851563 39.691406 62.046875 108.265624 99.589844 181.921874 99.601563zm0 0" fill="#57b7eb"/><path d="m280.226562 330.210938c-101.574218-.03125-185.550781-79.167969-191.601562-180.558594-31.90625 49.496094-34.042969 112.515625-5.566406 164.0625 28.480468 51.542968 82.96875 83.277344 141.855468 82.613281 58.886719-.664063 112.644532-33.621094 139.953126-85.796875-26.328126 12.972656-55.292969 19.707031-84.640626 19.679688zm0 0" fill="#2d72bc"/><path d="m160.226562 290.210938-16-48 48-40-40-32 16-40-30.480468-30.480469c-39.578125 25.351562-65.96875 66.855469-72.132813 113.449219-6.167969 46.59375 8.515625 93.535156 40.132813 128.3125l38.480468-19.28125zm0 0" fill="#a1d51c"/><path d="m384.226562 234.210938c.035157-26.234376-6.425781-52.070313-18.800781-75.199219l-45.199219 35.199219 24 32h-52l-36 16-16 56 56 24-32 32 16.800782 29.441406c62.074218-23.574219 103.140625-83.039063 103.199218-149.441406zm0 0" fill="#a1d51c"/><path d="m248.226562 130.210938h40l18.320313-33.039063c-24.835937-15.019531-53.300781-22.957031-82.320313-22.960937-3.839843 0-8 0-11.519531.558593l3.519531 31.441407zm0 0" fill="#c4f236"/><path d="m248.226562 130.210938-24 32v24l32 8 16-24zm0 0" fill="#a1d51c"/><g fill="#7ab92d"><path d="m192.226562 330.210938-44.5625 44.558593c23.488282 12.796875 49.816407 19.480469 76.5625 19.441407v-40zm0 0"/><path d="m88.226562 149.492188c-37.957031 60.617187-30.929687 139.089843 17.199219 192l38.800781-19.28125 16-32-.960937-2.960938c-41.988281-33.894531-67.769531-83.898438-71.039063-137.757812zm0 0"/><path d="m264.226562 354.210938 16.800782 29.441406c35.640625-13.625 65.277344-39.488282 83.597656-72.960938-23.828125 11.757813-49.851562 18.40625-76.398438 19.519532zm0 0"/></g><path d="m331.105469 186.210938c4.320312 0 8.71875.398437 13.121093.398437 10.707032.007813 21.402344-.769531 32-2.320313-2.835937-8.578124-6.394531-16.902343-10.640624-24.878906zm0 0" fill="#c4f236"/><path d="m248.226562 130.210938-17.761718 24c12.613281 7.847656 26.019531 14.339843 40 19.359374l1.761718-3.359374zm0 0" fill="#c4f236"/><path d="m448.226562 410.210938c0 26.507812-21.492187 48-48 48-26.511718 0-48-21.492188-48-48 0-26.511719 21.488282-48 48-48 26.507813 0 48 21.488281 48 48zm0 0" fill="#f9e109"/><path d="m416.226562 410.210938c0 8.835937-7.164062 16-16 16-8.835937 0-16-7.164063-16-16 0-8.835938 7.164063-16 16-16 8.835938 0 16 7.164062 16 16zm0 0" fill="#fcbc04"/><path d="m440.226562 426.210938c-33.019531.160156-60.742187-24.824219-64-57.679688-18.367187 10.648438-27.550781 32.101562-22.589843 52.742188 4.960937 20.640624 22.894531 35.570312 44.09375 36.710937 21.199219 1.136719 40.628906-11.78125 47.773437-31.773437zm0 0" fill="#fcbc04"/><path d="m388.304688 399.570312c-2.617188 2.925782-4.070313 6.714844-4.078126 10.640626 0 8.835937 7.164063 16 16 16 4.921876-.035157 9.554688-2.339844 12.558594-6.242188-9.738281-4.640625-18.15625-11.65625-24.480468-20.398438zm0 0" fill="#e59730"/><path d="m427.183594 160.371094c-38.792969-106.511719-153.324219-164.914063-262.316406-133.761719l9.277343-14.238281c2.410157-3.710938 1.351563-8.671875-2.359375-11.082032-3.710937-2.40625-8.671875-1.351562-11.078125 2.363282l-21.839843 33.4375c-1.398438 2.117187-1.710938 4.765625-.84375 7.148437.867187 2.382813 2.8125 4.210938 5.242187 4.933594l38.238281 11.597656c4.242188 1.28125 8.71875-1.117187 10-5.359375 1.28125-4.242187-1.117187-8.71875-5.359375-10l-14.078125-4.238281c100.222656-27.03125 204.46875 27.105469 240 124.636719 1.144532 3.167968 4.152344 5.28125 7.519532 5.28125.925781 0 1.847656-.164063 2.71875-.480469 2.007812-.703125 3.652343-2.183594 4.570312-4.105469.914062-1.921875 1.027344-4.128906.308594-6.132812zm0 0" fill="#4891d3"/><path d="m305.183594 419.25-38.238282-11.597656c-4.242187-1.28125-8.71875 1.117187-10 5.359375-1.28125 4.242187 1.117188 8.71875 5.359376 10l14.082031 4.238281c-100.222657 27.03125-204.46875-27.105469-240-124.640625-.914063-2.765625-3.257813-4.816406-6.117188-5.355469-2.863281-.535156-5.792969.523438-7.648437 2.765625-1.855469 2.246094-2.34375 5.320313-1.277344 8.03125 31.035156 85.3125 112.101562 142.113281 202.882812 142.160157 20.03125-.035157 39.960938-2.890626 59.199219-8.480469l-9.359375 14.320312c-2.394531 3.691407-1.359375 8.625 2.320313 11.039063 1.289062.902344 2.824219 1.378906 4.398437 1.359375 2.71875-.003907 5.25-1.390625 6.71875-3.679688l21.839844-33.4375c1.398438-2.117187 1.710938-4.769531.84375-7.148437-.867188-2.382813-2.8125-4.210938-5.242188-4.933594zm0 0" fill="#4891d3"/><path d="m24.226562 146.210938c0 4.417968 3.582032 8 8 8 4.417969 0 8-3.582032 8-8v-9.121094c15.40625-4.183594 25.375-19.082032 23.359376-34.921875-2.015626-15.835938-15.394532-27.765625-31.359376-27.957031-8.835937 0-16-7.164063-16-16 0-8.835938 7.164063-16 16-16 8.835938 0 16 7.164062 16 16 0 4.417968 3.582032 8 8 8 4.417969 0 8-3.582032 8-8-.046874-14.554688-9.910156-27.242188-24-30.878907v-9.121093c0-4.417969-3.582031-8-8-8-4.417968 0-8 3.582031-8 8v9.121093c-15.410156 4.179688-25.375 19.082031-23.363281 34.917969 2.015625 15.839844 15.398438 27.769531 31.363281 27.960938 8.835938 0 16 7.164062 16 16 0 8.835937-7.164062 16-16 16-8.835937 0-16-7.164063-16-16 0-4.417969-3.582031-8-8-8-4.417968 0-8 3.582031-8 8 .046876 14.554687 9.90625 27.242187 24 30.878906zm0 0" fill="#fcbc04"/></svg>
